<svg xmlns="http://www.w3.org/2000/svg" viewBox="0 0 1200 300" version="1.1"><path d="" stroke="none" fill="#080404" fill-rule="evenodd"/><path d="M 14.220 39.578 C 8.474 42.441, 4.610 46.483, 1.867 52.500 C 0.165 56.234, 0.042 60.693, 0.022 119.590 C 0.001 179.604, 0.098 183.066, 2.016 190.590 C 9.096 218.369, 31.722 241.003, 59.410 248.001 C 66.599 249.818, 70.609 249.999, 103.410 249.990 C 139.202 249.981, 139.542 249.961, 144.556 247.626 C 153.376 243.519, 160 233.171, 160 223.500 C 160 214.390, 153.764 204.059, 145.643 199.716 C 141.667 197.589, 140.153 197.479, 108 196.980 C 69.791 196.386, 69.117 196.253, 61.317 187.750 C 55.294 181.184, 54 175.891, 54 157.818 L 54 143 96.750 142.990 L 139.500 142.980 144.556 140.626 C 153.376 136.519, 160 126.171, 160 116.500 C 160 106.829, 153.376 96.481, 144.556 92.374 L 139.500 90.020 96.750 90.010 L 54 90 54 74.366 C 54 65.180, 53.510 57.096, 52.811 54.764 C 51.276 49.641, 44.141 41.731, 38.662 39.079 C 32.178 35.940, 21.065 36.167, 14.220 39.578 M 475.399 38.906 C 465.836 43.249, 459.875 52.693, 459.875 63.500 C 459.875 74.307, 465.836 83.751, 475.399 88.094 C 485.167 92.530, 499.831 89.512, 506.739 81.645 C 512.371 75.230, 513.472 72.263, 513.472 63.500 C 513.472 54.737, 512.371 51.770, 506.739 45.355 C 499.831 37.488, 485.167 34.470, 475.399 38.906 M 549.220 39.578 C 543.474 42.441, 539.610 46.483, 536.867 52.500 C 535.165 56.234, 535.042 60.693, 535.022 119.590 C 535.001 179.604, 535.098 183.066, 537.016 190.590 C 544.096 218.369, 566.722 241.003, 594.410 248.001 C 601.599 249.818, 605.609 249.999, 638.410 249.990 C 674.202 249.981, 674.542 249.961, 679.556 247.626 C 688.376 243.519, 695 233.171, 695 223.500 C 695 214.390, 688.764 204.059, 680.643 199.716 C 676.667 197.589, 675.153 197.479, 643 196.980 C 604.791 196.386, 604.117 196.253, 596.317 187.750 C 590.294 181.184, 589 175.891, 589 157.818 L 589 143 631.750 142.990 L 674.500 142.980 679.556 140.626 C 688.376 136.519, 695 126.171, 695 116.500 C 695 106.829, 688.376 96.481, 679.556 92.374 L 674.500 90.020 631.750 90.010 L 589 90 589 74.366 C 589 65.180, 588.510 57.096, 587.811 54.764 C 586.276 49.641, 579.141 41.731, 573.662 39.079 C 567.178 35.940, 556.065 36.167, 549.220 39.578 M 720.220 39.578 C 714.474 42.441, 710.610 46.483, 707.867 52.500 C 706.165 56.234, 706.042 60.693, 706.022 119.590 C 706.001 179.604, 706.098 183.066, 708.016 190.590 C 715.096 218.369, 737.722 241.003, 765.410 248.001 C 772.599 249.818, 776.609 249.999, 809.410 249.990 C 845.202 249.981, 845.542 249.961, 850.556 247.626 C 859.376 243.519, 866 233.171, 866 223.500 C 866 214.390, 859.764 204.059, 851.643 199.716 C 847.667 197.589, 846.153 197.479, 814 196.980 C 775.791 196.386, 775.117 196.253, 767.317 187.750 C 761.294 181.184, 760 175.891, 760 157.818 L 760 143 802.750 142.990 L 845.500 142.980 850.556 140.626 C 859.376 136.519, 866 126.171, 866 116.500 C 866 106.829, 859.376 96.481, 850.556 92.374 L 845.500 90.020 802.750 90.010 L 760 90 760 74.366 C 760 65.180, 759.510 57.096, 758.811 54.764 C 757.276 49.641, 750.141 41.731, 744.662 39.079 C 738.178 35.940, 727.065 36.167, 720.220 39.578 M 187.220 92.578 C 181.374 95.491, 177.556 99.537, 174.799 105.740 C 173.062 109.651, 172.920 112.816, 172.975 146.398 C 173.029 179.278, 173.227 183.578, 175.017 190.658 C 182.025 218.390, 204.904 241.102, 232.894 248.113 C 240.044 249.903, 243.377 250.148, 255.394 249.764 C 267.134 249.389, 270.842 248.873, 277.500 246.683 C 286.042 243.873, 295.980 238.449, 301.813 233.412 L 305.389 230.325 310.444 234.203 C 317.827 239.865, 332.456 246.826, 340.500 248.505 C 349.359 250.353, 368.499 250.389, 377.063 248.574 C 401.153 243.467, 424.036 223.897, 433.533 200.279 C 438.507 187.907, 439.123 181.269, 438.799 143.455 L 438.500 108.500 435.788 103.887 C 430.156 94.306, 422.732 90, 411.846 90 C 403.529 90, 399.563 91.518, 393.655 96.963 C 385.481 104.498, 385.567 104.048, 384.988 142.500 C 384.416 180.440, 384.336 180.910, 377.201 188.369 C 372.068 193.736, 366.831 195.951, 359.218 195.978 C 348.732 196.015, 341.421 191.801, 336.474 182.870 L 333.500 177.500 333 143 C 332.521 109.979, 332.407 108.326, 330.322 104.432 C 327.664 99.466, 321.311 93.575, 316.400 91.523 C 311.220 89.358, 299.562 89.562, 294.399 91.906 C 289.013 94.352, 283.262 100.202, 280.629 105.911 C 278.644 110.215, 278.480 112.613, 277.980 144.500 C 277.623 167.311, 277.060 179.388, 276.268 181.198 C 274.374 185.532, 267.829 192.163, 263.500 194.134 C 257.114 197.043, 247.468 196.647, 240.882 193.207 C 234.907 190.086, 229.629 183.925, 228.046 178.225 C 227.437 176.035, 227.009 161.904, 227.006 143.932 C 226.999 108.777, 226.512 105.681, 219.852 98.455 C 214.032 92.141, 208.974 90, 199.881 90 C 193.838 90, 191.394 90.497, 187.220 92.578 M 934 92.052 C 906.641 99.135, 883.948 121.993, 876.968 149.500 C 874.150 160.605, 874.152 179.367, 876.972 190.500 C 883.988 218.198, 906.783 241.018, 934.410 248.001 C 941.604 249.819, 945.585 249.998, 978.410 249.978 C 1011.449 249.958, 1014.847 249.799, 1018.601 248.094 C 1035.441 240.446, 1039.637 217.704, 1026.611 204.678 C 1019.337 197.403, 1020.199 197.555, 983 197 L 949.500 196.500 943.682 193.643 C 924.365 184.158, 924.074 156.118, 943.195 146.590 C 952.695 141.856, 965.672 143.582, 971.971 150.418 C 973.330 151.893, 977.380 158.801, 980.971 165.770 C 986.900 177.275, 987.952 178.718, 992.422 181.470 C 996.961 184.265, 998.055 184.500, 1006.500 184.500 C 1014.944 184.500, 1016.040 184.264, 1020.578 181.471 C 1026.692 177.708, 1031.498 170.733, 1033.016 163.421 C 1034.612 155.736, 1032.279 145.735, 1025.934 133.062 C 1015.629 112.478, 995.433 96.572, 973.303 91.613 C 963.042 89.313, 943.745 89.529, 934 92.052 M 1110 92.052 C 1082.641 99.135, 1059.946 121.995, 1052.969 149.500 C 1051.109 156.832, 1050.943 160.536, 1050.982 193.883 C 1051.029 234.815, 1051.027 234.802, 1058.614 242.382 C 1064.208 247.970, 1069.149 249.952, 1077.554 249.978 C 1086.203 250.005, 1093.214 246.904, 1098.520 240.705 C 1104.520 233.696, 1104.999 230.399, 1105.006 196.068 C 1105.009 178.096, 1105.437 163.965, 1106.046 161.775 C 1107.705 155.801, 1112.936 149.853, 1119.469 146.512 L 1125.352 143.504 1152.426 142.999 C 1182.929 142.430, 1182.493 142.529, 1189.878 134.516 C 1195.308 128.625, 1197.001 124.525, 1196.994 117.282 C 1196.986 108.805, 1195.506 104.779, 1190.247 98.929 C 1182.289 90.079, 1182.096 90.039, 1147.500 90.077 C 1121.112 90.106, 1116.597 90.344, 1110 92.052 M 480.332 109.905 C 475.453 111.151, 468.339 115.689, 465.565 119.326 C 459.906 126.745, 459.998 125.737, 460.022 180.218 C 460.047 236.714, 459.782 234.545, 467.618 242.382 C 473.201 247.964, 478.152 249.954, 486.500 249.968 C 495.291 249.984, 502.094 247.045, 507.272 240.995 C 514.115 233.001, 514.106 233.088, 513.786 177.883 L 513.500 128.500 510.788 123.887 C 507.655 118.558, 502.067 113.344, 497.397 111.392 C 493.203 109.640, 484.381 108.871, 480.332 109.905" stroke="none" fill="#040404" fill-rule="evenodd"/></svg>