<?xml version="1.0" encoding="UTF-8"?><svg id="Layer_2" xmlns="http://www.w3.org/2000/svg" viewBox="0 0 557.46 127.55"><defs><style>.cls-1{fill:#4dbc15;}</style></defs><g id="Layer_1-2" focusable="false"><g><path d="M320.89,76c1.95,4.57,2.94,9.49,2.91,14.46,.05,9.87-3.87,19.35-10.89,26.29-3.43,3.36-7.47,6.04-11.9,7.89-9.44,3.87-20.03,3.87-29.47,0-4.43-1.85-8.47-4.53-11.9-7.89-7.01-6.95-10.93-16.42-10.87-26.29-.03-4.97,.96-9.89,2.91-14.46,1.89-4.39,4.59-8.39,7.98-11.77,14.71-14.71,38.56-14.71,53.27,0,3.37,3.38,6.07,7.37,7.96,11.76Zm-15.12,5.38c-.9-2.59-2.31-4.97-4.15-7-1.85-1.96-4.08-3.51-6.56-4.55-5.64-2.24-11.91-2.24-17.55,0-2.48,1.04-4.71,2.59-6.56,4.55-1.85,2.03-3.26,4.41-4.16,7-2,5.88-2,12.26,0,18.14,.9,2.59,2.31,4.97,4.16,7,1.85,1.96,4.08,3.51,6.56,4.55,5.64,2.23,11.91,2.23,17.55,0,2.48-1.04,4.71-2.59,6.56-4.55,1.84-2.03,3.26-4.41,4.15-7,2-5.88,2-12.26,0-18.14Z"/><polygon points="444.19 111.9 483.43 111.9 483.43 125.85 424.31 125.85 424.31 112.35 461.27 69.07 425.6 69.07 425.6 55.12 481.42 55.12 481.42 68.48 444.19 111.9"/><polygon points="557.46 111.9 557.46 125.85 498.34 125.85 498.34 112.35 535.3 69.07 499.63 69.07 499.63 55.12 555.45 55.12 555.45 68.48 518.22 111.9 557.46 111.9"/><path d="M232.89,83.06v42.77h-15.65v-37.62c0-8.84-4.49-19.17-17.13-19.17-13.77,0-15.83,12.01-15.83,19.17v37.63h-15.67V30.13h15.66v29.77c8.29-6.68,21.1-8.46,31.54-4.14,10.85,4.49,17.07,14.44,17.08,27.3Z"/><path d="M390.76,55.17h15.56v40.07c0,10.28-3.43,23.82-19.79,30-8.34,3.06-17.5,3.08-25.86,.06-13.33-5-19.95-15-19.95-30V55h15.54v38.74c.02,2.21,.33,4.42,.92,6.55,.59,2.17,1.59,4.2,2.94,6,1.4,1.85,3.2,3.36,5.27,4.41,5.18,2.26,11.07,2.26,16.25,0,2.07-1.05,3.87-2.56,5.27-4.41h0c1.35-1.8,2.34-3.83,2.94-6,.59-2.13,.89-4.34,.91-6.55V55.17Z"/></g><polygon class="cls-1" points="70.28 86.22 42.22 86.22 42.22 125.84 0 125.84 0 0 27.99 0 27.99 30.13 112.5 54.36 112.5 125.84 70.28 125.84 70.28 86.22"/></g></svg>