<?xml version="1.0" encoding="UTF-8" standalone="no"?><svg xmlns="http://www.w3.org/2000/svg" width="118" height="28.736879" viewBox="0 0 118 28.736879" version="1.1" id="svg41" style="fill:none"><g clip-path="url(#clip0)" id="g34" transform="translate(0,-5.52632)"><path d="M 9.87537,16.842 V 15.7233 C 9.49211,15.6721 9.10246,15.6401 8.70003,15.6401 3.90288,15.6338 0,19.5399 0,24.3475 c 0,2.9472 1.46917,5.5556 3.71764,7.1347 -1.45001,-1.5535 -2.3379,-3.6441 -2.3379,-5.9328 0,-4.7373 3.79429,-8.5987 8.49563,-8.7074 z" id="path2" style="fill:#25f4ee" /><path d="m 10.0862,29.5259 c 2.1399,0 3.8901,-1.7069 3.9668,-3.8294 L 14.0594,6.72822 h 3.4621 C 17.4512,6.33824 17.4129,5.93548 17.4129,5.52632 H 12.686 L 12.6796,24.4946 c -0.0766,2.1225 -1.8269,3.8294 -3.96674,3.8294 -0.66432,0 -1.29031,-0.1662 -1.84604,-0.4603 0.71542,1.0037 1.89076,1.6622 3.21938,1.6622 z" id="path4" style="fill:#25f4ee" /><path d="m 23.9923,13.166 v -1.0548 c -1.3222,0 -2.5487,-0.39 -3.5835,-1.0677 0.9198,1.0549 2.1654,1.8221 3.5835,2.1225 z" id="path6" style="fill:#25f4ee" /><path d="M 20.4088,11.0435 C 19.3995,9.88639 18.7927,8.37762 18.7927,6.72821 H 17.528 c 0.3257,1.80285 1.3989,3.34999 2.8808,4.31529 z" id="path8" style="fill:#fe2c55" /><path d="m 8.70642,20.3646 c -2.19098,0 -3.97314,1.7837 -3.97314,3.9765 0,1.528 0.86872,2.8577 2.13348,3.5226 -0.47268,-0.6521 -0.75374,-1.4512 -0.75374,-2.3207 0,-2.1928 1.78216,-3.9765 3.97318,-3.9765 0.4088,0 0.8048,0.0703 1.1753,0.1854 v -4.8331 c -0.3833,-0.0512 -0.7729,-0.0832 -1.1753,-0.0832 -0.0703,0 -0.13418,0.0064 -0.20445,0.0064 V 20.55 C 9.50488,20.4349 9.11523,20.3646 8.70642,20.3646 Z" id="path10" style="fill:#fe2c55" /><path d="m 23.9921,13.166 v 3.676 c -2.4529,0 -4.7269,-0.7863 -6.5794,-2.1161 v 9.6216 c 0,4.8012 -3.9028,8.7138 -8.70639,8.7138 -1.85243,0 -3.5771,-0.5882 -4.98878,-1.5791 1.59053,1.7069 3.85816,2.781 6.36857,2.781 4.7971,0 8.7064,-3.9062 8.7064,-8.7138 v -9.6216 c 1.8524,1.3298 4.1264,2.1161 6.5793,2.1161 v -4.7308 c -0.4791,0 -0.939,-0.0512 -1.3797,-0.1471 z" id="path12" style="fill:#fe2c55" /><path d="m 17.4127,24.3475 v -9.6216 c 1.8525,1.3298 4.1265,2.1161 6.5794,2.1161 V 13.166 C 22.574,12.8656 21.3284,12.0984 20.4086,11.0435 18.9266,10.0782 17.8599,8.53106 17.5213,6.72821 H 14.0592 L 14.0528,25.6964 c -0.0766,2.1225 -1.8269,3.8295 -3.9667,3.8295 -1.32868,0 -2.49763,-0.6585 -3.22582,-1.6558 -1.26477,-0.6713 -2.13349,-1.9946 -2.13349,-3.5226 0,-2.1928 1.78216,-3.9765 3.97314,-3.9765 0.40881,0 0.80485,0.0703 1.17534,0.1854 v -3.708 c -4.70134,0.1023 -8.49563,3.9637 -8.49563,8.701 0,2.2887 0.88789,4.3729 2.33789,5.9328 1.41168,0.9909 3.13636,1.5791 4.98879,1.5791 4.79718,0 8.70638,-3.9126 8.70638,-8.7138 z" id="path14" style="fill:#000000" /><path d="m 30.0477,13.1787 h 14.7748 l -1.3542,4.2323 h -3.8326 v 15.6438 h -4.778 V 17.411 l -4.8036,0.0063 z" id="path16" style="fill:#000000" /><path d="M 69.0317,13.1787 H 84.1514 L 82.7972,17.411 H 78.6261 V 33.0548 H 73.8417 V 17.411 l -4.8036,0.0063 z" id="path18" style="fill:#000000" /><path d="m 45.7295,19.5015 h 4.7333 V 33.0548 H 45.755 Z" id="path20" style="fill:#000000" /><path d="m 52.347,13.1277 h 4.7332 v 9.2571 l 4.6886,-4.6094 h 5.6467 l -5.9341,5.7602 6.6432,9.5192 h -5.2124 l -4.4331,-6.5976 -1.4052,1.3617 v 5.2359 H 52.3406 V 13.1277 Z" id="path22" style="fill:#000000" /><path d="m 102.49,13.1277 h 4.734 v 9.2571 l 4.688,-4.6094 h 5.647 l -5.934,5.7602 6.643,9.5192 h -5.206 l -4.433,-6.5976 -1.405,1.3617 v 5.2359 h -4.734 z" id="path24" style="fill:#000000" /><path d="m 48.0929,17.9544 c 1.3159,0 2.3826,-1.0677 2.3826,-2.3847 0,-1.3169 -1.0667,-2.3846 -2.3826,-2.3846 -1.3158,0 -2.3826,1.0677 -2.3826,2.3846 0,1.317 1.0668,2.3847 2.3826,2.3847 z" id="path26" style="fill:#000000" /><path d="m 83.5445,24.942 c 0,-4.2641 3.2897,-7.7612 7.4736,-8.0872 -0.2108,-0.0192 -0.4982,-0.0256 -0.709,-0.0256 -4.4778,0 -8.106,3.6313 -8.106,8.1128 0,4.4816 3.6282,8.1128 8.106,8.1128 0.2108,0 0.4982,-0.0128 0.709,-0.0255 -4.1775,-0.3261 -7.4736,-3.8231 -7.4736,-8.0873 z" id="path28" style="fill:#25f4ee" /><path d="m 92.8579,16.8292 c -0.2172,0 -0.5047,0.0128 -0.7154,0.0256 4.1775,0.326 7.4672,3.8231 7.4672,8.0872 0,4.2642 -3.2897,7.7612 -7.4672,8.0873 0.2107,0.0191 0.4982,0.0255 0.7154,0.0255 4.4777,0 8.1061,-3.6312 8.1061,-8.1128 0,-4.4815 -3.6284,-8.1128 -8.1061,-8.1128 z" id="path30" style="fill:#fe2c55" /><path d="m 91.5803,28.8866 c -2.1782,0 -3.9412,-1.7645 -3.9412,-3.9446 0,-2.18 1.763,-3.9445 3.9412,-3.9445 2.1782,0 3.9412,1.7645 3.9412,3.9445 0,2.1801 -1.7693,3.9446 -3.9412,3.9446 z m 0,-12.0574 c -4.4777,0 -8.1059,3.6313 -8.1059,8.1128 0,4.4816 3.6282,8.1128 8.1059,8.1128 4.4778,0 8.106,-3.6312 8.106,-8.1128 0,-4.4815 -3.6282,-8.1128 -8.106,-8.1128 z" id="path32" style="fill:#000000" /></g><defs id="defs39"><clipPath id="clip0"><rect width="118" height="42" id="rect36" x="0" y="0" style="fill:#ffffff" /></clipPath></defs></svg>