<?xml version="1.0" encoding="utf-8"?>
<!-- Generator: Adobe Illustrator 27.5.0, SVG Export Plug-In . SVG Version: 6.00 Build 0)  -->
<svg version="1.1" id="Layer_1" xmlns="http://www.w3.org/2000/svg" xmlns:xlink="http://www.w3.org/1999/xlink" x="0px" y="0px"
	 viewBox="0 0 48 48" style="enable-background:new 0 0 48 48;" xml:space="preserve">
<style type="text/css">
	.st0{fill:none;}
	.st1{fill:#FFFFFF;}
	.st2{fill:#E60023;}
</style>
<rect x="-614.9" y="-131.8" class="st0" width="1278.8" height="312.5"/>
<g id="g58" transform="translate(245.0344,124.9999)">
	<path id="path60" class="st1" d="M-205.2-98.9c0,11-9,20-20,20c-11,0-20-9-20-20c0-11,9-20,20-20
		C-214.1-118.9-205.2-110-205.2-98.9"/>
</g>
<g id="g62" transform="translate(123.0422,246.9921)">
	<path id="path64" class="st2" d="M-99-246.7c-13.1,0-23.8,10.6-23.8,23.8c0,10.1,6.3,18.7,15.1,22.1c-0.2-1.9-0.4-4.8,0.1-6.8
		c0.4-1.9,2.8-11.8,2.8-11.8s-0.7-1.4-0.7-3.5c0-3.3,1.9-5.8,4.3-5.8c2,0,3,1.5,3,3.3c0,2-1.3,5.1-2,7.9c-0.6,2.4,1.2,4.3,3.5,4.3
		c4.2,0,7.5-4.5,7.5-10.9c0-5.7-4.1-9.7-9.9-9.7c-6.8,0-10.7,5.1-10.7,10.3c0,2,0.8,4.2,1.8,5.4c0.2,0.2,0.2,0.4,0.2,0.7
		c-0.2,0.8-0.6,2.4-0.7,2.7c-0.1,0.4-0.3,0.5-0.8,0.3c-3-1.4-4.8-5.7-4.8-9.2c0-7.5,5.4-14.4,15.7-14.4c8.2,0,14.6,5.9,14.6,13.7
		c0,8.2-5.2,14.8-12.3,14.8c-2.4,0-4.7-1.3-5.4-2.7c0,0-1.2,4.5-1.5,5.6c-0.5,2.1-2,4.6-3,6.2c2.2,0.7,4.6,1.1,7,1.1
		c13.1,0,23.8-10.6,23.8-23.8C-75.3-236.1-85.9-246.7-99-246.7"/>
</g>
</svg>
