<?xml version="1.0" encoding="UTF-8"?>
<svg id="Layer_2" data-name="Layer 2" xmlns="http://www.w3.org/2000/svg" xmlns:xlink="http://www.w3.org/1999/xlink" viewBox="0 0 1278.75 312.5">
  <defs>
    <style>
      .cls-1 {
        fill: none;
      }

      .cls-2 {
        clip-path: url(#clippath);
      }

      .cls-3 {
        fill: #e60023;
      }

      .cls-4 {
        fill: #fff;
      }
    </style>
    <clipPath id="clippath">
      <rect class="cls-1" width="1278.75" height="312.5"/>
    </clipPath>
  </defs>
  <g id="svg2">
    <g id="g10">
      <path id="path12" class="cls-3" d="m503.75,112.64h40.39v126.87h-40.39v-126.87Z"/>
      <g id="g14">
        <g class="cls-2">
          <g id="g16">
            <g id="g22">
              <path id="path24" class="cls-3" d="m552.57,112.64h38.9v17.35h.74c9.42-13.63,21.56-21.06,39.15-21.06,27.75,0,44.11,19.82,44.11,48.07v82.51h-40.39v-74.33c0-13.38-6.69-22.55-19.82-22.55s-22.3,11.15-22.3,26.76v70.12h-40.39v-126.87Z"/>
            </g>
            <g id="g26">
              <path id="path28" class="cls-3" d="m548.17,78.7c0-13.38-10.85-24.23-24.23-24.23s-24.23,10.85-24.23,24.23,10.85,24.23,24.23,24.23,24.23-10.85,24.23-24.23"/>
            </g>
            <g id="g30">
              <path id="path32" class="cls-3" d="m959.53,110.81c-1.15-.1-2.47-.15-4.02-.15-15.36,0-25.77,6.69-34.69,21.8h-.74v-19.82h-38.65v126.86h40.39v-56.99c0-26.41,14.62-38.64,37.72-36.51v-35.2Z"/>
            </g>
            <g id="g34">
              <path id="path36" class="cls-3" d="m1157.74,159.47c-16.11-2.97-30.48-4.21-30.48-13.13,0-7.93,7.68-11.65,17.59-11.65,11.15,0,18.83,3.47,20.32,14.87h37.17c-1.98-25.03-21.31-40.64-57.24-40.64-29.98,0-54.76,13.88-54.76,40.64,0,29.73,23.54,35.68,45.59,39.4,16.85,2.97,32.21,4.21,32.21,15.61,0,8.18-7.68,12.64-19.82,12.64s-20.24-5.15-22.71-15.61h-38.49c2.83,26.08,25.73,41.87,61.44,41.87,33.2,0,57.73-14.37,57.73-42.12,0-32.46-26.26-38.16-48.57-41.88"/>
            </g>
            <g id="g38">
              <path id="path40" class="cls-3" d="m1022.19,137.67c13.13,0,22.55,9.66,24.04,24.78h-50.05c2.72-15.12,10.65-24.78,26.02-24.78m2.23,76.56c-16.6,0-26.02-10.65-28.5-27.75h91.19c.25-25.77-7.19-47.82-22.3-61.7-10.9-9.91-25.27-15.86-43.36-15.86-38.65,0-65.17,28.99-65.17,66.9s25.77,67.4,67.65,67.4c16.1,0,28.99-4.21,39.65-11.65,11.15-7.68,18.58-18.58,21.31-29.98h-39.4c-3.47,7.93-10.41,12.64-21.06,12.64"/>
            </g>
            <g id="g42">
              <path id="path44" class="cls-3" d="m1277.44,209.59c-1.87.07-4.38.18-6.69.18-8.67,0-14.12-2.48-14.12-12.39v-59.47h20.82v-25.27h-20.82v-40.14h-39.4v40.14h-12.4v25.27h12.4v68.14c0,27.26,16.85,34.94,40.39,34.94,8.98,0,15.77-.67,19.82-1.46v-29.94Z"/>
            </g>
            <g id="g46">
              <path id="path48" class="cls-3" d="m747.6,209.65c-1.61.06-3.47.13-5.21.13-8.67,0-14.12-2.48-14.12-12.39v-59.47h19.33v-25.27h-19.33v-40.14h-39.4v40.14h-13.14v25.27h13.14v68.14c0,27.26,16.85,34.94,40.39,34.94,7.96,0,14.2-.53,18.34-1.2v-30.14Z"/>
            </g>
            <g id="g50">
              <path id="path52" class="cls-3" d="m835.57,162.45c-1.49-15.12-10.9-24.78-24.04-24.78-15.36,0-23.29,9.66-26.02,24.78h50.05Zm-89.95,13.38c0-37.91,26.51-66.9,65.17-66.9,18.09,0,32.46,5.95,43.36,15.86,15.12,13.88,22.55,35.93,22.3,61.7h-91.18c2.48,17.1,11.89,27.75,28.49,27.75,10.65,0,17.59-4.71,21.06-12.64h39.4c-2.73,11.4-10.16,22.3-21.31,29.98-10.65,7.43-23.54,11.65-39.64,11.65-41.88,0-67.65-28.99-67.65-67.4"/>
            </g>
            <g id="g54">
              <path id="path56" class="cls-3" d="m433.6,145.6c15.86,0,24.78-9.42,24.78-23.54s-9.17-22.8-24.78-22.8h-30.98v46.34h30.98Zm-71.87-83.26h70.14c21.56,0,37.41,5.95,48.32,16.35,11.4,10.65,17.84,25.77,17.84,43.61,0,33.95-23.54,57.98-59.97,57.98h-35.44v59.22h-40.89s0-177.17,0-177.17Z"/>
            </g>
            <g id="g58">
              <path id="path60" class="cls-4" d="m306.29,156.25c0,84.22-68.27,152.49-152.49,152.49S1.31,240.47,1.31,156.25,69.59,3.76,153.8,3.76s152.49,68.27,152.49,152.49"/>
            </g>
            <g id="g62">
              <path id="path64" class="cls-3" d="m153.8,3.76C69.59,3.76,1.31,72.03,1.31,156.25c0,64.6,40.19,119.83,96.92,142.05-1.33-12.07-2.54-30.62.53-43.79,2.77-11.9,17.88-75.8,17.88-75.8,0,0-4.56-9.13-4.56-22.64,0-21.2,12.29-37.03,27.59-37.03,13.01,0,19.29,9.77,19.29,21.48,0,13.08-8.33,32.65-12.63,50.77-3.59,15.18,7.61,27.56,22.58,27.56,27.1,0,47.94-28.58,47.94-69.83,0-36.51-26.24-62.04-63.7-62.04-43.39,0-68.86,32.54-68.86,66.18,0,13.11,5.05,27.16,11.35,34.8,1.25,1.51,1.43,2.83,1.06,4.37-1.16,4.82-3.73,15.17-4.24,17.29-.67,2.79-2.21,3.38-5.1,2.04-19.05-8.86-30.95-36.71-30.95-59.07,0-48.1,34.95-92.28,100.76-92.28,52.9,0,94.01,37.69,94.01,88.07s-33.14,94.85-79.13,94.85c-15.45,0-29.98-8.03-34.95-17.51,0,0-7.65,29.11-9.5,36.25-3.44,13.24-12.74,29.85-18.95,39.98,14.27,4.42,29.43,6.8,45.15,6.8,84.22,0,152.49-68.27,152.49-152.49,0-84.22-68.27-152.49-152.49-152.49"/>
            </g>
          </g>
        </g>
      </g>
    </g>
  </g>
</svg>